<?xml version="1.0" standalone="no"?>
<!DOCTYPE svg PUBLIC "-//W3C//DTD SVG 20010904//EN"
 "http://www.w3.org/TR/2001/REC-SVG-20010904/DTD/svg10.dtd">
<svg version="1.0" xmlns="http://www.w3.org/2000/svg"
 width="1350.000000pt" height="650.000000pt" viewBox="0 0 1350.000000 650.000000"
 preserveAspectRatio="xMidYMid meet">

<g transform="translate(0.000000,650.000000) scale(0.100000,-0.100000)"
fill="#000000" stroke="none">
<path d="M11422 3708 l3 -313 188 -3 187 -2 0 60 0 60 -125 0 -125 0 0 70 0
70 105 0 105 0 0 55 0 55 -105 0 -105 0 0 70 0 70 125 0 125 0 0 60 0 60 -190
0 -190 0 2 -312z"/>
<path d="M11902 3709 l3 -314 130 1 c155 1 212 16 280 76 57 50 81 97 96 185
23 140 -35 261 -153 322 -65 33 -71 34 -213 39 l-145 5 2 -314z m265 180 c94
-36 141 -172 94 -274 -32 -70 -93 -105 -181 -105 l-50 0 0 195 0 195 54 0 c30
0 67 -5 83 -11z"/>
<path d="M12520 3783 c0 -232 0 -237 24 -278 47 -79 136 -119 250 -113 91 4
159 37 201 97 l30 43 3 244 3 244 -65 0 -65 0 -3 -224 c-3 -221 -3 -225 -27
-250 -30 -31 -82 -50 -119 -41 -16 3 -44 19 -63 34 l-34 29 -3 226 -3 226 -65
0 -64 0 0 -237z"/>
<path d="M9236 3898 c4 -6 95 -141 201 -300 l194 -288 -204 -303 c-112 -166
-207 -308 -211 -314 -6 -10 25 -13 141 -13 l148 0 130 205 c72 113 132 205
135 205 3 0 64 -92 135 -205 l130 -205 148 0 c116 0 147 3 141 13 -4 6 -99
148 -211 315 l-204 303 194 287 c106 158 197 293 201 300 6 9 -25 12 -141 12
l-148 -1 -120 -189 c-66 -104 -122 -190 -125 -190 -3 0 -59 86 -125 190 l-120
190 -148 0 c-112 0 -146 -3 -141 -12z"/>
</g>
</svg>
